<svg version="1.2" baseProfile="tiny-ps" xmlns="http://www.w3.org/2000/svg" viewBox="0 0 33 34" width="33" height="34">
	<title>Header</title>
	<style>
		tspan { white-space:pre }
		.shp0 { fill: #333333 } 
	</style>
	<g id="Header">
		<g id="order info details">
			<path id="ingredient ico 1" class="shp0" d="M16.5 0.6C25.62 0.6 33.09 8.12 33 17.38C32.9 26.81 25.61 34 16.57 34.06C7.47 34.12 -0.07 26.54 -0.02 17.35C0.02 8.01 7.28 0.61 16.5 0.6ZM16.48 32.79C24.85 32.83 31.69 25.96 31.75 17.45C31.81 8.87 25.02 1.87 16.56 1.81C8.26 1.76 1.33 8.71 1.16 16.99C0.99 25.42 7.95 32.96 16.48 32.79ZM26.28 21.95C26.21 22.4 26.07 22.85 26.08 23.3C26.09 23.79 26.14 24.33 26.35 24.76C26.74 25.54 26.72 26.18 26.11 26.82C25.35 27.62 24.68 27.74 23.87 27.39C23.38 27.18 22.77 27.04 22.27 27.14C19.58 27.68 17.08 26.35 16.11 23.7C15.85 22.99 15.51 22.57 14.76 22.32C13.16 21.8 12.03 20.7 11.54 19.03C11.34 18.32 10.93 17.98 10.25 17.73C7.48 16.69 6.24 14.27 6.84 11.35C6.94 10.9 6.83 10.31 6.6 9.92C6.08 9.03 6.29 8.35 6.94 7.71C7.56 7.08 8.2 6.76 9.11 7.28C9.53 7.52 10.15 7.64 10.61 7.53C13.5 6.82 16.19 8.69 16.91 11.04C17.06 11.54 17.63 12.07 18.12 12.26C19.75 12.9 20.89 13.98 21.42 15.63C21.65 16.36 22.03 16.68 22.71 16.92C24.94 17.67 26.23 19.57 26.28 21.95ZM25.5 25.8C25.37 25.76 25.24 25.73 25.1 25.69C25.02 24.85 24.73 23.97 24.9 23.19C25.44 20.79 24.37 18.72 22.06 18.03C21.19 17.77 20.59 17.24 20.35 16.32C19.96 14.82 18.99 13.88 17.56 13.43C16.61 13.13 16.05 12.52 15.74 11.56C15.02 9.36 13.15 8.24 10.95 8.75C10.07 8.94 9.31 9 8.53 8.47C8.4 8.38 8.03 8.45 7.89 8.58C7.74 8.72 7.63 9.11 7.71 9.23C8.32 10.06 8.23 10.92 8.01 11.86C7.55 13.94 8.64 15.86 10.64 16.51C11.73 16.87 12.39 17.51 12.7 18.64C13.05 19.89 13.92 20.79 15.14 21.14C16.27 21.46 16.89 22.11 17.25 23.21C17.95 25.29 19.86 26.39 21.95 25.9C22.96 25.67 23.88 25.65 24.73 26.43C25.01 26.2 25.26 26 25.5 25.8ZM16.52 14.47C18.12 14.48 19.35 15.76 19.31 17.38C19.28 18.93 18.01 20.2 16.48 20.2C14.89 20.21 13.65 18.93 13.66 17.3C13.67 15.66 14.88 14.46 16.52 14.47ZM16.43 15.67C15.6 15.7 14.85 16.51 14.87 17.36C14.89 18.2 15.7 19 16.51 18.98C17.32 18.95 18.08 18.12 18.06 17.27C18.04 16.39 17.28 15.64 16.43 15.67ZM18.19 21.9C18.19 20.23 19.36 19.04 21 19.05C22.58 19.05 23.86 20.34 23.86 21.91C23.85 23.47 22.54 24.78 20.99 24.77C19.39 24.77 18.19 23.54 18.19 21.9ZM21.04 20.23C20.25 20.2 19.39 21.02 19.36 21.83C19.33 22.65 20.1 23.51 20.92 23.55C21.76 23.6 22.53 22.85 22.56 21.96C22.59 21.06 21.89 20.26 21.04 20.23ZM9.2 12.75C9.21 11.22 10.48 9.93 11.99 9.93C13.56 9.92 14.85 11.21 14.86 12.8C14.88 14.38 13.59 15.67 12 15.66C10.4 15.65 9.19 14.4 9.2 12.75ZM10.4 12.8C10.39 13.66 11.16 14.46 12.01 14.46C12.86 14.47 13.62 13.7 13.63 12.82C13.64 11.97 12.89 11.18 12.03 11.16C11.22 11.14 10.4 11.96 10.4 12.8Z" />
		</g>
	</g>
</svg>