<svg version="1.2" baseProfile="tiny-ps" xmlns="http://www.w3.org/2000/svg" viewBox="0 0 30 31" width="30" height="31">
	<title>Header</title>
	<style>
		tspan { white-space:pre }
		.shp0 { fill: #333333 } 
	</style>
	<g id="Header">
		<g id="order info details">
			<g id="details 2">
				<path id="x" fill-rule="evenodd" class="shp0" d="M15.05 0.81C23.27 0.81 29.94 7.47 29.94 15.69C29.94 23.91 23.27 30.57 15.05 30.57C6.83 30.57 0.16 23.91 0.16 15.69C0.16 7.47 6.83 0.81 15.05 0.81ZM2.02 15.69C2.02 22.88 7.85 28.71 15.05 28.71C22.25 28.71 28.08 22.88 28.08 15.69C28.08 8.5 22.25 2.67 15.05 2.67C7.85 2.67 2.02 8.5 2.02 15.69ZM19.44 11.31C19.78 11.65 19.78 12.21 19.44 12.56L16.3 15.69L19.44 18.82C19.78 19.17 19.78 19.73 19.44 20.07C19.09 20.42 18.53 20.42 18.18 20.07L15.05 16.94L11.92 20.07C11.57 20.42 11.01 20.42 10.66 20.07C10.32 19.73 10.32 19.17 10.66 18.82L13.8 15.69L10.66 12.56C10.32 12.21 10.32 11.65 10.66 11.31C11.01 10.96 11.57 10.96 11.92 11.31L15.05 14.44L18.18 11.31C18.53 10.96 19.09 10.96 19.44 11.31Z" />
			</g>
		</g>
	</g>
</svg>