<svg version="1.2" baseProfile="tiny-ps" xmlns="http://www.w3.org/2000/svg" viewBox="0 0 60 105" width="60" height="105">
	<title>Слой 1</title>
	<style>
		tspan { white-space:pre }
		.shp0 { fill: #000000 } 
	</style>
	<g id="Слой 1">
		<path id="&lt;Compound Path&gt;" fill-rule="evenodd" class="shp0" d="M59.56 71.33C59.57 75.21 58.56 82.53 55.18 89.35C50.7 98.4 43.44 103.45 33.33 104.24C26.93 104.73 20.7 104.12 15.06 100.67C7.43 96.02 3.75 88.78 1.85 80.39C-1.21 66.85 0.91 53.69 4.89 40.71C9.43 25.89 17.08 12.84 27.63 1.49C29.53 -0.55 30.62 -0.48 32.77 1.77C41.38 10.79 47.77 21.22 52.41 32.74C56.92 43.95 59.58 55.55 59.56 71.33ZM3.04 67C3.15 69.37 3.12 71.55 3.39 73.68C3.7 76.21 4.15 78.74 4.77 81.21C7.72 92.86 14.87 100.77 27.3 101.67C34.9 102.21 42 100.92 47.69 95.35C53.47 89.69 55.66 82.41 56.55 74.64C57.79 63.83 56.28 53.3 53.16 42.95C49.01 29.16 42.55 16.63 32.92 5.84C30.51 3.15 29.6 3.26 27.2 5.86C21.72 11.77 17.4 18.4 13.81 25.61C7.26 38.73 3.47 52.52 3.04 67Z" />
		<path id="&lt;Compound Path&gt;" fill-rule="evenodd" class="shp0" d="M5.77 67.1C6.55 47.23 12.98 29.25 24.86 13.2C25.81 11.91 26.75 10.62 27.79 9.41C29.62 7.27 30.67 7.12 32.33 9.44C36.12 14.76 40.11 20.02 43.17 25.76C50.8 40.08 55 55.39 54.06 71.76C53.63 79.25 51.95 86.47 46.76 92.38C43.43 96.18 39.14 97.97 34.25 98.76C24.81 100.27 15.67 96.77 11.42 89.95C8.35 85.03 6.8 79.63 6.2 73.92C5.96 71.7 5.91 69.46 5.77 67.1ZM29.71 95.11C33.61 87.73 33.12 18.71 29.54 14.45C26.95 41.58 26.78 68.35 29.71 95.11ZM26.22 95.69C18.13 68.48 19.76 41.52 26.41 14.49C25.81 15.54 25.21 16.62 24.78 17.76C19.02 33.09 16.94 48.98 17.75 65.28C18.12 72.65 19.23 79.92 21.92 86.83C23.1 89.88 24.77 92.75 26.22 95.69ZM34.55 16.09C40.51 42.54 41.69 68.8 33.88 95.09C35.12 93.17 36.34 91.22 37.25 89.13C41.12 80.19 42.33 70.71 42.56 61.08C42.9 47.63 40.71 34.52 36.79 21.69C36.2 19.77 35.3 17.95 34.55 16.09Z" />
	</g>
</svg>