<svg version="1.2" baseProfile="tiny-ps" xmlns="http://www.w3.org/2000/svg" viewBox="0 0 60 61" width="60" height="61">
	<title>Cracker constructor</title>
	<style>
		tspan { white-space:pre }
		.shp0 { fill: #49743f } 
	</style>
	<g id="Cracker constructor">
		<g id="ingredient 2">
			<path id="sesame копия" class="shp0" d="M0.58 30.27C0.58 13.5 13.77 0.2 30.38 0.21C46.76 0.22 60.11 13.69 59.99 30.34C59.86 46.99 46.69 60.3 30.05 60.37C13.84 60.43 0.57 46.81 0.58 30.27ZM30.2 58.04C45.38 58.29 57.83 45.63 57.84 30.17C57.84 15 45.36 2.4 30.28 2.39C15.14 2.37 2.67 14.98 2.7 30.3C2.73 45.63 15.06 58.06 30.2 58.04ZM36.53 24.14C36.5 29.78 31.96 33.25 27.9 31.44C24.89 30.09 23.07 25.93 24.36 22.37C25.23 19.96 26.61 17.72 27.97 15.54C28.86 14.11 31.11 13.89 32.12 15.07C34.53 17.87 36.31 21.02 36.53 24.14ZM30.06 16.49C28.07 19.11 26.13 21.73 26.25 25.28C26.32 27.41 28.04 29.45 29.87 29.71C31.54 29.96 33.37 28.5 34.05 26.38C34.93 23.64 33.01 18.75 30.06 16.49ZM47.35 34.19C47.23 36.26 46.69 39.43 44.56 41.98C41.95 45.12 37.58 45.57 35.08 43.13C32.48 40.59 32.66 35.85 35.56 33.11C38.05 30.77 41.23 29.82 44.45 29.2C46.33 28.83 47.46 30.47 47.35 34.19ZM45.61 31.96C45.4 31.8 45.18 31.64 44.96 31.48C41.77 31.88 38.82 32.88 36.56 35.41C36.11 35.91 35.82 36.62 35.61 37.28C34.7 40.25 36.52 42.51 39.55 42.29C41.51 42.15 42.99 41.1 43.62 39.38C44.51 36.99 44.97 34.44 45.61 31.96ZM12.81 33.48C12.88 29.62 14.36 28.26 17.85 29.52C20.38 30.44 22.97 31.61 25.05 33.28C27.51 35.24 27.9 38.24 26.71 41.2C25.87 43.3 24.13 44.42 21.91 44.47C18.79 44.54 16.24 43.29 14.97 40.31C14.04 38.13 13.52 35.76 12.81 33.48ZM15.25 31.28C15.52 35.01 15.6 38.46 18.27 41.04C19.58 42.31 21.3 42.7 22.99 41.98C24.44 41.37 25.29 40.02 25.04 38.41C24.86 37.24 24.44 35.93 23.7 35.07C21.6 32.65 18.69 31.8 15.25 31.28Z" />
		</g>
	</g>
</svg>