<svg version="1.2" baseProfile="tiny-ps" xmlns="http://www.w3.org/2000/svg" viewBox="0 0 60 60" width="60" height="60">
	<title>Cracker constructor</title>
	<style>
		tspan { white-space:pre }
		.shp0 { fill: #00a651 } 
	</style>
	<g id="Cracker constructor">
		<g id="ingredient 1">
			<path id="soybean копия" class="shp0" d="M29.89 0.01C46.34 -0.01 59.81 13.51 59.64 30.15C59.46 47.1 46.32 60.02 30.02 60.12C13.63 60.22 0.04 46.61 0.12 30.09C0.21 13.32 13.28 0.03 29.89 0.01ZM29.86 57.84C44.95 57.9 57.28 45.56 57.39 30.28C57.5 14.85 45.26 2.29 30 2.18C15.06 2.08 2.56 14.57 2.25 29.44C1.94 44.59 14.49 58.15 29.86 57.84ZM47.53 38.36C47.4 39.17 47.14 39.98 47.16 40.79C47.18 41.67 47.27 42.64 47.65 43.4C48.35 44.81 48.31 45.96 47.22 47.11C45.84 48.55 44.64 48.77 43.18 48.13C42.31 47.75 41.21 47.51 40.3 47.69C35.46 48.66 30.94 46.26 29.19 41.5C28.72 40.23 28.11 39.47 26.77 39.03C23.89 38.09 21.84 36.11 20.96 33.11C20.6 31.84 19.85 31.23 18.64 30.77C13.64 28.91 11.41 24.56 12.49 19.32C12.66 18.52 12.47 17.45 12.05 16.74C11.11 15.15 11.5 13.93 12.66 12.77C13.79 11.64 14.95 11.07 16.57 12C17.33 12.44 18.45 12.65 19.29 12.45C24.49 11.19 29.33 14.53 30.64 18.76C30.92 19.65 31.93 20.6 32.82 20.95C35.75 22.1 37.82 24.03 38.77 27.01C39.19 28.31 39.87 28.9 41.1 29.32C45.11 30.68 47.43 34.09 47.53 38.36ZM46.13 45.28C45.89 45.21 45.65 45.15 45.41 45.09C45.26 43.58 44.73 41.99 45.05 40.59C46.01 36.29 44.08 32.57 39.92 31.32C38.36 30.85 37.27 29.89 36.84 28.24C36.14 25.56 34.39 23.86 31.81 23.05C30.1 22.52 29.08 21.42 28.53 19.7C27.24 15.74 23.87 13.73 19.89 14.64C18.32 14.99 16.93 15.1 15.54 14.15C15.29 13.97 14.63 14.11 14.37 14.34C14.12 14.58 13.91 15.29 14.06 15.5C15.15 17 14.99 18.54 14.6 20.23C13.76 23.97 15.74 27.42 19.35 28.6C21.3 29.23 22.49 30.39 23.05 32.42C23.68 34.66 25.25 36.28 27.45 36.9C29.48 37.48 30.6 38.65 31.26 40.63C32.51 44.37 35.96 46.33 39.73 45.46C41.54 45.05 43.19 45.01 44.73 46.41C45.24 46 45.68 45.64 46.13 45.28ZM29.93 24.92C32.81 24.94 35.04 27.25 34.97 30.16C34.91 32.94 32.62 35.21 29.86 35.22C26.99 35.23 24.77 32.94 24.79 30.01C24.8 27.05 26.98 24.9 29.93 24.92ZM29.77 27.08C28.28 27.13 26.92 28.6 26.96 30.12C26.99 31.63 28.46 33.07 29.92 33.02C31.38 32.98 32.74 31.48 32.71 29.96C32.67 28.37 31.31 27.03 29.77 27.08ZM32.95 38.27C32.95 35.27 35.06 33.14 38.01 33.15C40.86 33.16 43.17 35.46 43.16 38.29C43.15 41.09 40.78 43.44 37.98 43.44C35.1 43.43 32.95 41.22 32.95 38.27ZM38.09 35.27C36.66 35.22 35.12 36.69 35.06 38.15C35 39.62 36.4 41.16 37.87 41.24C39.39 41.33 40.77 39.98 40.82 38.38C40.87 36.76 39.61 35.33 38.09 35.27ZM16.74 21.84C16.76 19.08 19.05 16.77 21.78 16.76C24.6 16.75 26.92 19.06 26.95 21.92C26.97 24.77 24.66 27.08 21.79 27.06C18.9 27.05 16.72 24.79 16.74 21.84ZM18.9 21.93C18.88 23.46 20.28 24.9 21.8 24.91C23.33 24.92 24.7 23.54 24.73 21.97C24.75 20.43 23.39 19.01 21.84 18.98C20.38 18.95 18.91 20.42 18.9 21.93Z" />
		</g>
	</g>
</svg>