<svg version="1.2" baseProfile="tiny-ps" xmlns="http://www.w3.org/2000/svg" viewBox="0 0 60 61" width="60" height="61">
	<title>Cracker constructor</title>
	<style>
		tspan { white-space:pre }
		.shp0 { fill: #939393 } 
	</style>
	<g id="Cracker constructor">
		<g id="ingredient 4">
			<path id="corn копия" class="shp0" d="M30.19 60.78C14.02 61.09 0.18 47.27 0.38 30.58C0.58 14.1 13.73 0.63 30.06 0.73C46.84 0.83 59.81 13.96 59.88 30.96C59.95 47.68 46.1 60.97 30.19 60.78ZM2.54 30.58C2.51 45.99 14.84 58.59 30 58.63C45.18 58.67 57.59 46.14 57.77 30.85C57.94 16.12 45.32 2.83 30.2 2.96C14.99 3.1 2.58 15.34 2.54 30.58ZM39.54 28.25C43.35 28.46 43.38 28.46 43.34 32.2C43.29 35.98 43.47 39.8 42.97 43.52C42.26 48.78 38.94 52.4 33.93 53.47C25.26 55.31 17.46 49.63 17.03 40.6C16.78 35.46 16.98 30.29 16.98 25.14C16.98 22.42 16.98 22.42 19.65 22.34C19.99 22.33 20.33 22.29 20.86 22.24C20.86 20.58 20.85 19 20.86 17.42C20.89 12.1 24.81 8.22 30.16 8.2C35.5 8.18 39.49 12.06 39.53 17.33C39.56 20.93 39.54 24.53 39.54 28.25ZM31.69 51.32C31.69 45.95 31.92 40.67 31.63 35.43C31.33 30.22 27.96 26.27 23.44 25.02C19.41 23.9 19.15 24.09 19.15 28.17C19.15 28.46 19.15 28.76 19.15 29.06C19.24 33.38 19 37.73 19.49 42C20.16 47.95 25.92 52.2 31.69 51.32ZM33.84 46.91C36.27 45.4 37.35 43.45 37.36 40.99C37.41 33.11 37.4 25.23 37.37 17.34C37.36 14.59 35.67 11.58 32.33 10.72C27.8 9.56 23.42 12.29 23.04 16.8C22.88 18.68 23.02 20.58 23.02 22.49C23.38 22.63 23.64 22.75 23.91 22.84C30.66 25.23 33.84 29.78 33.84 37.03C33.84 40.22 33.84 43.41 33.84 46.91ZM41.22 30.71C40.91 30.58 40.61 30.46 40.31 30.34C40.05 30.82 39.58 31.29 39.57 31.78C39.49 34.73 39.5 37.69 39.53 40.65C39.57 44.36 37.99 47.08 34.88 49C34.32 49.35 34.02 50.12 33.6 50.7C33.77 50.83 33.93 50.95 34.09 51.07C37.36 49.99 39.93 47.78 40.45 44.42C41.14 39.92 41 35.28 41.22 30.71ZM27.2 15.11C27.93 15.78 28.42 16.23 28.9 16.67C28.38 17.09 27.84 17.87 27.34 17.85C26.71 17.82 26.11 17.13 25.5 16.72C25.99 16.26 26.47 15.8 27.2 15.11ZM27.14 23.02C26.4 22.23 25.96 21.76 25.51 21.29C26.15 20.93 26.77 20.35 27.43 20.3C27.9 20.27 28.41 20.96 28.91 21.33C28.41 21.81 27.92 22.28 27.14 23.02ZM33.13 17.1C32.47 16.47 32.04 16.06 31.61 15.64C32.17 15.27 32.72 14.61 33.29 14.59C33.82 14.58 34.36 15.25 34.89 15.62C34.39 16.04 33.88 16.47 33.13 17.1ZM33.4 23.25C34.05 23.93 34.47 24.38 34.89 24.82C34.39 25.19 33.87 25.87 33.39 25.84C32.79 25.81 32.21 25.2 31.63 24.84C32.13 24.39 32.64 23.94 33.4 23.25ZM33.47 21.7C32.64 21.09 32.11 20.69 31.57 20.29C32.19 19.91 32.79 19.29 33.45 19.22C33.88 19.17 34.41 19.89 34.89 20.27C34.48 20.69 34.07 21.1 33.47 21.7Z" />
		</g>
	</g>
</svg>