<svg version="1.2" baseProfile="tiny-ps" xmlns="http://www.w3.org/2000/svg" viewBox="0 0 33 34" width="33" height="34">
	<title>Header</title>
	<style>
		tspan { white-space:pre }
		.shp0 { fill: #333333 } 
	</style>
	<g id="Header">
		<g id="order info details">
			<path id="ingredient ico 4" class="shp0" d="M16.5 34.07C7.53 34.25 -0.15 26.55 -0.04 17.27C0.07 8.09 7.37 0.6 16.43 0.65C25.74 0.71 32.93 8.02 32.97 17.48C33.01 26.78 25.33 34.18 16.5 34.07ZM1.16 17.27C1.14 25.84 7.98 32.85 16.39 32.88C24.82 32.9 31.7 25.93 31.8 17.41C31.9 9.22 24.9 1.82 16.51 1.9C8.07 1.97 1.18 8.79 1.16 17.27ZM21.69 15.97C23.8 16.09 23.82 16.09 23.79 18.17C23.77 20.27 23.87 22.4 23.59 24.47C23.2 27.39 21.35 29.41 18.57 30C13.76 31.03 9.44 27.87 9.2 22.84C9.06 19.98 9.17 17.11 9.17 14.24C9.17 12.72 9.17 12.72 10.65 12.68C10.84 12.68 11.03 12.65 11.32 12.62C11.32 11.7 11.32 10.82 11.32 9.94C11.34 6.98 13.52 4.82 16.49 4.81C19.45 4.8 21.66 6.96 21.68 9.89C21.7 11.9 21.69 13.9 21.69 15.97ZM17.33 28.81C17.33 25.82 17.46 22.88 17.3 19.96C17.13 17.07 15.26 14.87 12.75 14.17C10.52 13.55 10.37 13.65 10.38 15.92C10.38 16.09 10.37 16.25 10.38 16.42C10.42 18.82 10.29 21.25 10.56 23.62C10.94 26.93 14.13 29.3 17.33 28.81ZM18.53 26.35C19.88 25.52 20.47 24.43 20.48 23.06C20.51 18.67 20.5 14.29 20.48 9.9C20.48 8.37 19.54 6.69 17.69 6.21C15.17 5.57 12.74 7.09 12.53 9.6C12.45 10.64 12.52 11.7 12.52 12.76C12.72 12.84 12.87 12.91 13.02 12.96C16.76 14.29 18.53 16.82 18.53 20.85C18.53 22.63 18.53 24.41 18.53 26.35ZM22.62 17.34C22.45 17.27 22.28 17.2 22.11 17.13C21.97 17.4 21.71 17.66 21.7 17.93C21.66 19.58 21.66 21.22 21.68 22.87C21.71 24.93 20.83 26.45 19.1 27.52C18.79 27.71 18.63 28.14 18.39 28.46C18.48 28.53 18.57 28.6 18.67 28.67C20.48 28.07 21.9 26.84 22.19 24.97C22.57 22.46 22.5 19.88 22.62 17.34ZM14.84 8.66C15.24 9.03 15.52 9.28 15.79 9.53C15.5 9.76 15.2 10.19 14.92 10.18C14.57 10.16 14.24 9.78 13.9 9.56C14.17 9.3 14.44 9.04 14.84 8.66ZM14.81 13.06C14.4 12.62 14.15 12.36 13.9 12.1C14.26 11.9 14.6 11.57 14.97 11.55C15.23 11.53 15.51 11.91 15.79 12.12C15.51 12.38 15.24 12.65 14.81 13.06ZM18.13 9.76C17.77 9.41 17.53 9.18 17.29 8.95C17.6 8.74 17.91 8.38 18.22 8.37C18.51 8.36 18.81 8.73 19.11 8.94C18.83 9.18 18.55 9.41 18.13 9.76ZM18.28 13.19C18.64 13.57 18.88 13.81 19.11 14.06C18.83 14.26 18.54 14.64 18.27 14.63C17.94 14.61 17.62 14.27 17.3 14.07C17.58 13.82 17.86 13.57 18.28 13.19ZM18.32 12.32C17.86 11.98 17.56 11.76 17.26 11.54C17.61 11.33 17.94 10.98 18.31 10.94C18.55 10.91 18.84 11.32 19.11 11.53C18.88 11.76 18.65 11.99 18.32 12.32Z" />
		</g>
	</g>
</svg>