<svg version="1.2" baseProfile="tiny-ps" xmlns="http://www.w3.org/2000/svg" viewBox="0 0 34 34" width="34" height="34">
	<title>Header</title>
	<style>
		tspan { white-space:pre }
		.shp0 { fill: #333333 } 
	</style>
	<g id="Header">
		<g id="order info details">
			<path id="ingredient ico 2" class="shp0" d="M0.66 17.33C0.66 7.99 7.98 0.6 17.2 0.6C26.29 0.6 33.69 8.1 33.62 17.37C33.55 26.63 26.25 34.04 17.01 34.08C8.02 34.12 0.66 26.53 0.66 17.33ZM17.1 32.79C25.52 32.93 32.43 25.88 32.43 17.27C32.43 8.83 25.51 1.82 17.14 1.81C8.74 1.8 1.82 8.82 1.84 17.35C1.85 25.88 8.69 32.8 17.1 32.79ZM20.61 13.92C20.59 17.06 18.07 18.99 15.82 17.98C14.15 17.23 13.14 14.91 13.86 12.93C14.34 11.59 15.1 10.34 15.86 9.13C16.35 8.34 17.6 8.21 18.16 8.87C19.5 10.43 20.49 12.18 20.61 13.92ZM17.02 9.66C15.91 11.12 14.84 12.58 14.9 14.55C14.94 15.73 15.9 16.87 16.91 17.02C17.84 17.15 18.85 16.34 19.23 15.16C19.72 13.64 18.65 10.92 17.02 9.66ZM26.61 19.51C26.55 20.67 26.24 22.42 25.07 23.84C23.61 25.59 21.19 25.84 19.8 24.49C18.36 23.07 18.46 20.44 20.07 18.91C21.45 17.61 23.21 17.08 25 16.73C26.05 16.53 26.67 17.44 26.61 19.51ZM25.65 18.27C25.53 18.18 25.41 18.09 25.29 18C23.52 18.23 21.88 18.78 20.62 20.19C20.37 20.47 20.21 20.86 20.1 21.23C19.59 22.88 20.6 24.14 22.28 24.02C23.37 23.94 24.19 23.35 24.54 22.4C25.03 21.07 25.29 19.65 25.65 18.27ZM7.45 19.11C7.49 16.97 8.31 16.21 10.25 16.91C11.65 17.42 13.08 18.07 14.24 19C15.6 20.1 15.82 21.76 15.16 23.41C14.69 24.58 13.73 25.2 12.5 25.23C10.77 25.27 9.35 24.57 8.65 22.92C8.13 21.7 7.84 20.39 7.45 19.11ZM8.8 17.89C8.95 19.97 8.99 21.89 10.48 23.32C11.2 24.03 12.16 24.25 13.1 23.85C13.9 23.5 14.37 22.75 14.23 21.86C14.13 21.21 13.9 20.48 13.49 20C12.32 18.65 10.71 18.18 8.8 17.89Z" />
		</g>
	</g>
</svg>