<svg version="1.2" baseProfile="tiny-ps" xmlns="http://www.w3.org/2000/svg" viewBox="0 0 34 34" width="34" height="34">
	<title>Header</title>
	<style>
		tspan { white-space:pre }
		.shp0 { fill: #333333 } 
	</style>
	<g id="Header">
		<g id="order info details">
			<path id="ingredient ico 3" class="shp0" d="M16.85 0.73C25.99 0.73 33.29 8.18 33.28 17.51C33.27 26.53 26.13 33.93 17.32 34.08C7.62 34.25 0.25 26.51 0.32 17.24C0.39 8.13 7.75 0.73 16.85 0.73ZM1.52 17.29C1.6 25.71 7.92 32.94 16.78 32.9C25.43 32.86 31.92 26.05 32.08 17.61C32.23 9.02 25.33 1.98 16.87 1.94C8.52 1.89 1.57 8.84 1.52 17.29ZM11.48 21.3C11.2 20.09 10.83 18.93 10.69 17.75C10.54 16.39 10.85 16.15 12.06 16.17C11.85 14.93 11.54 13.67 11.46 12.4C11.36 10.82 11.93 10.49 13.44 11.01C13.71 11.1 13.98 11.21 14.38 11.36C13.79 9.2 14.47 7.45 15.86 5.92C16.66 5.04 17.12 5.05 17.91 5.97C19.22 7.5 19.81 9.22 19.21 11.3C19.86 11.12 20.42 10.92 21 10.82C21.72 10.69 22.19 11.07 22.14 11.79C22.03 13.23 21.82 14.66 21.65 16.13C21.87 16.22 22.57 16.29 22.75 16.63C23 17.13 22.92 17.83 22.88 18.43C22.84 18.92 22.68 19.4 22.53 19.86C22.38 20.33 22.18 20.77 21.97 21.3C22.35 21.3 22.76 21.18 22.96 21.33C23.33 21.6 23.84 22.06 23.82 22.41C23.71 24.52 23.22 26.51 21.52 27.96C19.28 29.86 16.7 30.03 14.1 29.15C11.52 28.27 10.22 26.22 9.93 23.49C9.9 23.26 9.88 23.03 9.84 22.81C9.65 21.71 9.98 21.31 11.1 21.3C11.26 21.3 11.42 21.3 11.48 21.3ZM11.12 22.69C10.84 25.72 13.74 28.62 16.04 28.16C16.31 24.97 13.68 22.49 11.12 22.69ZM17.51 28.14C20.05 28.62 22.83 25.52 22.46 22.7C19.73 22.61 17.4 25.34 17.51 28.14ZM21.65 17.57C19.35 17.57 17.18 20.08 17.58 22.48C19.33 22.6 21.81 20.55 21.65 17.57ZM16.05 22.45C16.48 20.54 14.53 17.38 11.96 17.66C12.16 20.58 13.81 22.5 16.05 22.45ZM16.78 12.62C18.81 11 18.54 7.96 16.8 6.85C14.94 8.64 14.94 11.2 16.78 12.62ZM16.05 17.16C16.41 14.65 14.89 12.4 12.72 12.25C12.21 14.75 14.44 17.19 16.05 17.16ZM20.91 12.22C18.63 12.57 17.27 14.59 17.54 17.15C19.58 17.02 21.19 14.71 20.91 12.22ZM15.98 23.87C16.29 24.39 16.53 24.79 16.82 25.27C17.11 24.76 17.35 24.36 17.63 23.87C17.05 23.87 16.6 23.87 15.98 23.87Z" />
		</g>
	</g>
</svg>