<svg version="1.2" baseProfile="tiny-ps" xmlns="http://www.w3.org/2000/svg" viewBox="0 0 60 61" width="60" height="61">
	<title>Cracker constructor</title>
	<style>
		tspan { white-space:pre }
		.shp0 { fill: #aba000 } 
	</style>
	<g id="Cracker constructor">
		<g id="ingredient 3">
			<path id="wheat копия" class="shp0" d="M29.79 0.66C46.27 0.66 59.42 14.05 59.4 30.82C59.38 47.02 46.52 60.31 30.64 60.58C13.15 60.88 -0.13 46.98 0 30.32C0.12 13.95 13.39 0.65 29.79 0.66ZM2.16 30.42C2.3 45.55 13.69 58.53 29.66 58.46C45.25 58.38 56.96 46.15 57.24 30.99C57.52 15.55 45.08 2.91 29.82 2.83C14.77 2.74 2.26 15.23 2.16 30.42ZM20.11 37.61C19.61 35.45 18.94 33.36 18.7 31.23C18.41 28.8 18.98 28.36 21.16 28.4C20.78 26.16 20.21 23.91 20.07 21.62C19.9 18.79 20.91 18.19 23.65 19.12C24.14 19.29 24.63 19.49 25.33 19.75C24.28 15.87 25.49 12.73 28 9.98C29.44 8.4 30.27 8.42 31.69 10.07C34.06 12.82 35.13 15.91 34.04 19.66C35.22 19.33 36.23 18.96 37.28 18.78C38.56 18.55 39.42 19.23 39.33 20.53C39.14 23.12 38.75 25.69 38.44 28.33C38.83 28.49 40.11 28.61 40.43 29.23C40.88 30.12 40.73 31.38 40.65 32.47C40.59 33.33 40.3 34.2 40.03 35.03C39.76 35.87 39.4 36.67 39.02 37.62C39.71 37.62 40.44 37.39 40.81 37.67C41.47 38.16 42.4 38.98 42.36 39.62C42.16 43.4 41.28 46.98 38.2 49.59C34.17 53 29.52 53.3 24.84 51.72C20.19 50.14 17.83 46.45 17.32 41.56C17.27 41.15 17.24 40.73 17.16 40.33C16.82 38.36 17.42 37.64 19.43 37.61C19.72 37.61 20 37.61 20.11 37.61ZM19.46 40.12C18.95 45.56 24.19 50.77 28.34 49.94C28.81 44.2 24.07 39.75 19.46 40.12ZM30.97 49.91C35.56 50.76 40.57 45.19 39.91 40.14C34.98 39.97 30.77 44.88 30.97 49.91ZM38.44 30.91C34.3 30.91 30.39 35.43 31.11 39.73C34.27 39.96 38.72 36.27 38.44 30.91ZM28.35 39.69C29.12 36.26 25.61 30.57 20.98 31.08C21.35 36.32 24.3 39.77 28.35 39.69ZM29.66 22.02C33.32 19.12 32.83 13.65 29.7 11.65C26.35 14.86 26.34 19.46 29.66 22.02ZM28.34 30.18C29 25.66 26.25 21.63 22.34 21.36C21.43 25.84 25.45 30.23 28.34 30.18ZM37.12 21.29C32.99 21.93 30.54 25.56 31.03 30.15C34.71 29.93 37.61 25.78 37.12 21.29ZM28.22 42.24C28.78 43.17 29.22 43.89 29.74 44.75C30.27 43.84 30.69 43.11 31.2 42.24C30.15 42.24 29.34 42.24 28.22 42.24Z" />
		</g>
	</g>
</svg>